<?xml version="1.0" standalone="no"?>
<!DOCTYPE svg PUBLIC "-//W3C//DTD SVG 20010904//EN"
 "http://www.w3.org/TR/2001/REC-SVG-20010904/DTD/svg10.dtd">
<svg version="1.0" xmlns="http://www.w3.org/2000/svg"
 width="640.000000pt" height="640.000000pt" viewBox="0 0 640.000000 640.000000"
 preserveAspectRatio="xMidYMid meet">
<metadata>
Created by potrace 1.11, written by Peter Selinger 2001-2013
</metadata>
<g transform="translate(0.000000,640.000000) scale(0.100000,-0.100000)"
fill="#000000" stroke="none">
<path d="M325 6356 c-158 -39 -280 -165 -314 -324 -16 -76 -16 -5598 0 -5674
35 -163 164 -292 327 -327 76 -16 5648 -16 5724 0 163 35 292 164 327 327 16
76 16 5598 0 5674 -35 163 -164 292 -327 327 -80 17 -5668 14 -5737 -3z m5685
-376 c19 -19 20 -33 20 -535 l0 -515 -27 -5 c-282 -59 -599 -268 -1123 -739
-190 -170 -795 -776 -1036 -1036 -314 -339 -720 -795 -825 -927 -19 -23 -36
-41 -39 -40 -3 2 -111 55 -240 119 -740 367 -1120 444 -1313 268 -62 -56 -93
-118 -103 -204 -11 -96 6 -126 173 -283 344 -326 634 -674 916 -1101 112 -168
268 -418 341 -544 l28 -48 -1186 0 c-1173 0 -1186 0 -1206 20 -20 20 -20 33
-20 2785 0 2752 0 2765 20 2785 20 20 33 20 2810 20 2777 0 2790 0 2810 -20z
m-471 -1724 c-75 -76 -362 -380 -435 -461 -763 -847 -1431 -1903 -1935 -3057
-35 -81 -66 -148 -69 -148 -3 0 -21 26 -39 58 -390 657 -728 1116 -1110 1505
-130 132 -132 129 41 71 166 -55 381 -152 697 -311 210 -106 314 -153 337
-153 72 0 110 27 212 149 571 686 1410 1571 1937 2043 130 116 356 307 364
308 2 0 2 -2 0 -4z m491 -1941 c0 -1872 0 -1885 -20 -1905 -20 -20 -33 -20
-1304 -20 l-1285 0 58 133 c106 243 194 430 321 682 439 870 926 1598 1519
2275 138 157 687 720 703 720 4 0 8 -848 8 -1885z"/>
<path d="M1200 5825 c-204 -45 -394 -174 -505 -340 -52 -79 -110 -206 -135
-300 -31 -113 -39 -345 -16 -469 66 -347 280 -599 596 -698 66 -20 95 -23 235
-23 135 0 173 4 245 23 270 74 405 219 356 384 -26 90 -111 168 -182 168 -15
0 -84 -18 -153 -41 -310 -101 -482 -44 -572 190 -27 69 -37 239 -20 321 27
131 111 240 215 279 114 42 224 37 366 -18 41 -16 94 -32 116 -35 172 -29 301
184 214 354 -42 83 -162 157 -309 191 -115 27 -359 35 -451 14z"/>
<path d="M2555 5826 c-247 -56 -427 -224 -480 -447 -42 -178 11 -366 128 -460
77 -61 161 -104 362 -184 245 -98 266 -110 284 -161 13 -38 13 -44 -5 -75 -23
-39 -66 -58 -134 -58 -68 -1 -142 21 -280 84 -143 66 -205 77 -275 51 -86 -33
-137 -121 -136 -237 0 -121 83 -209 263 -280 113 -45 199 -60 358 -66 137 -5
166 -3 240 16 273 68 440 250 465 507 13 135 -27 265 -111 354 -74 79 -169
135 -372 219 -229 95 -264 113 -291 147 -40 51 -17 113 54 140 64 24 138 9
304 -61 124 -53 139 -57 190 -52 111 12 181 95 181 215 0 85 -24 136 -96 201
-109 99 -260 151 -464 157 -83 2 -145 -1 -185 -10z"/>
<path d="M3944 5826 c-293 -67 -494 -297 -494 -565 0 -188 74 -316 234 -406
38 -21 165 -77 282 -125 117 -48 224 -94 238 -104 30 -19 46 -70 34 -111 -24
-86 -161 -99 -326 -30 -45 19 -119 51 -164 70 -99 42 -154 45 -218 13 -93 -47
-143 -161 -120 -273 36 -174 321 -305 665 -305 215 0 373 58 501 185 112 110
156 221 156 390 0 166 -53 272 -186 371 -80 61 -153 97 -371 185 -166 67 -235
113 -235 157 0 45 20 73 67 94 44 19 54 20 115 10 37 -7 118 -35 185 -64 138
-61 207 -69 278 -32 95 50 133 180 85 292 -43 100 -172 189 -337 233 -101 27
-302 35 -389 15z"/>
</g>
</svg>
